# Blender v3.0.1 OBJ File: 'rock.blend'
# www.blender.org
mtllib rock.mtl
o Icosphere.001_Icosphere.001
v -0.273259 -0.587868 0.138111
v -0.122378 -0.584509 0.189034
v -0.252350 -0.454643 0.173500
v -0.308790 -0.597213 -0.071458
v -0.292918 -0.595393 0.031994
v -0.352854 -0.457324 -0.033076
v -0.317022 -0.459687 0.091615
v -0.337811 -0.481360 -0.131094
v -0.151641 -0.352708 0.190782
v -0.012933 -0.338855 0.198948
v -0.199668 -0.275945 0.161593
v -0.328401 -0.313292 0.028382
v -0.262045 -0.352006 0.158199
v -0.262370 -0.271528 0.037612
v -0.224779 -0.353341 -0.195197
v -0.324122 -0.307541 -0.068821
v -0.147604 -0.269476 -0.135118
v -0.252816 -0.582723 -0.169998
v -0.237604 -0.617549 -0.025843
v -0.116694 -0.617337 -0.113839
v -0.193183 -0.612804 0.085750
v -0.029326 -0.617617 0.110851
v -0.016873 -0.573827 0.176989
v -0.185545 -0.498425 -0.205020
v -0.076832 -0.441865 0.211722
v 0.058220 -0.275509 0.154460
v -0.040184 -0.271254 -0.002653
v -0.118497 -0.275896 0.061841
v -0.020518 -0.270880 -0.140334
v 0.088187 -0.577201 0.156052
v 0.144261 -0.489209 0.188569
v -0.042120 -0.572065 -0.219603
v -0.091295 -0.276756 0.152740
v -0.088967 -0.462446 -0.219023
v 0.104359 -0.567316 -0.210039
v 0.112017 -0.618104 -0.130713
v 0.145596 -0.352887 0.183801
v 0.065775 -0.447945 -0.223629
v 0.298363 -0.565182 -0.058371
v 0.248508 -0.577201 -0.131764
v 0.305485 -0.447114 -0.106880
v 0.218685 -0.567316 0.154759
v 0.279011 -0.595719 0.036896
v 0.267053 -0.451507 0.126176
v 0.198779 -0.454465 -0.211301
v 0.324941 -0.448275 -0.010589
v -0.046938 -0.370793 -0.193043
v 0.228946 -0.316511 -0.151549
v 0.110053 -0.357578 -0.209381
v 0.128899 -0.271152 -0.111469
v 0.306704 -0.351448 0.032058
v 0.257056 -0.292516 -0.056873
v 0.224330 -0.276111 0.007390
v 0.248622 -0.331945 0.136203
v 0.214274 -0.611421 -0.045762
v -0.024836 -0.616952 -0.132725
v 0.109331 -0.617528 0.109353
v 0.039004 -0.478598 0.198652
v 0.078703 -0.268529 0.002599
v -0.007406 -0.616487 -0.011501
vt 0.999784 0.777888
vt 0.781916 0.751069
vt 0.930695 0.535842
vt 0.718554 0.493678
vt 0.498343 0.500066
vt 0.612704 0.301958
vt 0.278288 0.491767
vt 0.136170 0.301428
vt 0.385039 0.315647
vt 0.861174 0.302958
vt 0.817615 0.924676
vt 0.662334 0.996212
vt 0.719667 0.785775
vt 0.955856 0.540882
vt 0.919844 0.749017
vt 0.810792 0.580191
vt 0.698724 0.249779
vt 0.882029 0.358101
vt 0.648319 0.423681
vt 0.738504 0.311189
vt 0.859769 0.100574
vt 0.955856 0.301223
vt 0.603011 0.109855
vt 0.889116 0.979094
vt 0.625593 0.954685
vt 0.572947 0.723101
vt 0.629662 0.708272
vt 0.361849 0.694965
vt 0.626863 0.523494
vt 0.877334 0.514944
vt 0.753445 0.687054
vt 0.678897 0.522004
vt 0.804007 0.322784
vt 0.508145 0.125975
vt 0.614686 0.322544
vt 0.274631 0.088482
vt 0.046907 0.080882
vt 0.724191 0.150589
vt 0.955856 0.101994
vt 0.459738 0.810380
vt 0.524431 0.596612
vt 0.614955 0.619521
vt 0.385224 0.455707
vt 0.518113 0.743431
vt 0.397247 0.481913
vt 0.473092 0.333636
vt 0.593136 0.806842
vt 0.542133 0.566645
vt 0.245991 0.361941
vt 0.291514 0.126530
vt 0.515385 0.289890
vt 0.348981 0.560141
vt 0.480373 0.537386
vt 0.705144 0.472239
vt 0.601667 0.722403
vt 0.283471 0.700220
vt 0.061144 0.812481
vt 0.120014 0.502516
vt 0.080353 0.535703
vt 0.356859 0.719702
vt 0.417004 0.243099
vt 0.001005 0.468262
vt 0.186797 0.314823
vt 0.187216 0.555587
vt 0.094383 0.931756
vt 0.003057 0.709324
vt 0.238065 0.772821
vt 0.569632 0.999536
vt 0.323797 1.000000
vt 0.482075 0.313011
vt 0.735871 0.182001
vt 0.032983 0.251846
vt 0.574313 0.080491
vt 0.318361 0.961238
vt 0.229901 0.178033
vt 0.256609 0.467686
vt 0.464307 0.768933
vt 0.865183 0.712997
vt 0.725052 0.926500
vt 0.093408 0.705147
vt 0.230523 0.921209
vt 0.968797 0.984796
vt 0.210756 0.792236
vt 0.477482 0.962103
vt 0.256493 0.223509
vt 0.000000 0.255402
vt 0.543998 0.500902
vt 0.362414 0.637562
vt 0.469769 0.648982
vt 0.379376 0.894841
vt 0.246514 0.544201
vt 0.117965 0.884444
vt 0.047032 0.632888
vt 0.079441 0.605161
vt 0.000000 0.325670
vt 0.241712 0.163133
vt 0.470206 0.343559
vn -0.3095 -0.1985 0.9300
vn -0.9308 -0.3340 0.1487
vn -0.7828 -0.0421 0.6208
vn -0.9568 -0.2799 -0.0782
vn -0.0864 0.3064 0.9480
vn -0.5166 0.7115 0.4763
vn -0.3701 0.7415 -0.5597
vn -0.1356 -0.9662 -0.2191
vn -0.1558 -0.9638 -0.2164
vn -0.0862 -0.9442 0.3178
vn -0.0755 -0.9473 0.3113
vn 0.1450 -0.8373 0.5271
vn -0.3121 -0.9478 0.0646
vn -0.2415 -0.9607 0.1370
vn -0.2286 -0.9672 0.1109
vn -0.4413 -0.0587 -0.8954
vn -0.4387 -0.0231 -0.8983
vn -0.7510 -0.4411 -0.4914
vn -0.2159 0.0479 0.9752
vn -0.2057 -0.0893 0.9745
vn 0.1308 -0.1963 0.9718
vn -0.9599 0.0449 0.2767
vn -0.9244 -0.2786 0.2604
vn -0.9478 -0.2534 0.1936
vn -0.0747 0.1682 0.9829
vn -0.8636 0.1418 0.4837
vn -0.7852 0.0181 0.6190
vn -0.2805 0.1156 0.9529
vn -0.6988 0.2894 -0.6542
vn -0.9725 0.1426 -0.1842
vn -0.9830 0.1808 -0.0326
vn -0.0244 0.9988 0.0423
vn 0.0112 0.9999 0.0043
vn 0.1629 -0.4317 0.8872
vn -0.2124 -0.2255 -0.9508
vn 0.0668 0.6485 0.7583
vn -0.1528 0.0256 -0.9879
vn 0.0266 0.9994 0.0222
vn -0.7218 0.5748 0.3855
vn -0.2771 0.1852 0.9428
vn 0.0255 0.9993 0.0288
vn -0.2671 0.9492 -0.1662
vn -0.5370 0.8432 0.0263
vn 0.0626 -0.8378 -0.5424
vn 0.0980 0.0338 0.9946
vn 0.0678 -0.0912 -0.9935
vn 0.8180 -0.2601 -0.5131
vn 0.8422 -0.2316 0.4869
vn 0.0806 -0.8380 0.5397
vn 0.0879 -0.0846 -0.9925
vn 0.9702 -0.1398 -0.1977
vn 0.4440 0.0355 0.8953
vn 0.0633 0.5420 -0.8380
vn 0.0687 0.7414 -0.6676
vn 0.6458 0.7511 0.1372
vn 0.2448 0.5730 0.7821
vn 0.4558 -0.8744 -0.1665
vn 0.2755 -0.9258 -0.2587
vn 0.2378 -0.8074 -0.5399
vn -0.0544 -0.9035 -0.4251
vn -0.0007 -0.8885 -0.4589
vn 0.2658 -0.8974 0.3523
vn 0.1549 -0.9857 0.0660
vn 0.4515 -0.8723 -0.1879
vn -0.1256 -0.0484 -0.9909
vn -0.0874 -0.8920 -0.4435
vn 0.0628 -0.7411 0.6684
vn -0.0561 0.2960 -0.9535
vn -0.0291 -0.0071 -0.9996
vn 0.6850 0.1582 -0.7111
vn 0.6951 -0.1709 -0.6983
vn 0.4249 -0.3648 -0.8285
vn 0.9209 0.0018 0.3898
vn 0.9103 -0.1607 0.3815
vn 0.9585 -0.2630 0.1104
vn 0.0076 -0.7551 0.6555
vn 0.0370 -0.3671 0.9295
vn 0.3249 0.3152 -0.8917
vn 0.0970 0.1085 -0.9894
vn -0.1187 0.2112 -0.9702
vn 0.9033 0.3036 -0.3031
vn 0.9201 0.3470 -0.1817
vn 0.8554 0.3814 -0.3506
vn 0.4146 0.0278 0.9096
vn 0.4541 -0.0047 0.8909
vn 0.8769 0.0957 0.4711
vn 0.0333 -0.2402 0.9701
vn 0.1260 0.0447 0.9910
vn 0.0369 0.2568 -0.9658
vn 0.0058 0.9998 -0.0204
vn 0.1308 0.7307 -0.6701
vn -0.1309 0.4894 -0.8621
vn 0.0520 0.9986 -0.0001
vn 0.2187 0.9664 -0.1353
vn 0.2848 0.9057 -0.3141
vn 0.0502 0.9974 0.0526
vn 0.2972 0.8952 0.3320
vn 0.6255 0.7520 0.2080
vn -0.0248 0.9988 0.0426
vn 0.1252 0.4722 0.8726
vn 0.0081 0.9999 0.0071
vn -0.0229 0.9997 -0.0006
vn -0.0289 0.9989 0.0368
vn -0.0309 0.4728 -0.8806
vn -0.0272 -0.9995 -0.0141
vn 0.0020 -0.9991 0.0417
vn 0.0044 -1.0000 0.0036
vn 0.0048 -1.0000 0.0031
vn -0.0085 -1.0000 0.0051
vn 0.0295 -0.9986 0.0431
vn 0.0187 -0.9995 -0.0267
vn 0.0005 -1.0000 -0.0091
vn -0.0142 0.5853 0.8107
vn -0.0085 0.9999 0.0120
vn 0.0663 -0.2582 0.9638
vn 0.0988 0.0346 0.9945
usemtl None.001
s off
f 1/1/1 2/2/1 3/3/1
f 4/4/2 5/5/2 6/6/2
f 1/7/3 3/8/3 7/9/3
f 4/4/4 6/6/4 8/10/4
f 9/11/5 10/12/5 11/13/5
f 12/14/6 13/15/6 14/16/6
f 15/17/7 16/18/7 17/19/7
f 18/20/8 19/21/8 4/22/8
f 18/20/9 20/23/9 19/21/9
f 2/2/10 1/1/10 21/24/10
f 21/24/11 22/25/11 2/2/11
f 22/25/12 23/26/12 2/2/12
f 19/27/13 5/5/13 4/4/13
f 19/27/14 21/28/14 5/5/14
f 21/28/15 1/7/15 5/5/15
f 24/29/16 8/30/16 15/31/16
f 24/29/17 18/20/17 8/30/17
f 18/20/18 4/22/18 8/30/18
f 3/3/19 25/32/19 9/33/19
f 3/3/20 2/2/20 25/32/20
f 2/2/21 23/26/21 25/32/21
f 6/6/22 7/9/22 12/34/22
f 6/6/23 5/5/23 7/9/23
f 5/5/24 1/7/24 7/9/24
f 25/32/25 10/35/25 9/33/25
f 7/9/26 13/36/26 12/34/26
f 7/9/27 3/8/27 13/36/27
f 3/8/28 9/37/28 13/36/28
f 8/10/29 16/38/29 15/39/29
f 8/10/30 6/6/30 16/38/30
f 6/6/31 12/34/31 16/38/31
f 26/40/32 27/41/32 28/42/32
f 27/41/33 29/43/33 17/19/33
f 23/26/34 30/44/34 31/45/34
f 32/46/35 18/20/35 24/29/35
f 11/13/36 10/12/36 33/47/36
f 24/29/37 15/31/37 34/48/37
f 14/16/38 11/13/38 28/42/38
f 14/16/39 13/15/39 11/13/39
f 13/15/40 9/11/40 11/13/40
f 17/19/41 14/16/41 28/42/41
f 17/19/42 16/18/42 14/16/42
f 16/18/43 12/14/43 14/16/43
f 35/49/44 36/50/44 32/46/44
f 37/51/45 10/35/45 31/45/45
f 35/49/46 32/46/46 38/52/46
f 39/53/47 40/54/47 41/55/47
f 42/56/48 43/57/48 44/58/48
f 23/26/49 22/25/49 30/44/49
f 35/49/50 38/52/50 45/59/50
f 39/53/51 41/55/51 46/60/51
f 42/56/52 44/58/52 31/45/52
f 15/17/53 17/19/53 47/61/53
f 48/62/54 49/63/54 50/64/54
f 51/65/55 52/66/55 53/67/55
f 37/68/56 54/69/56 26/40/56
f 55/70/57 40/54/57 39/53/57
f 55/70/58 36/71/58 40/54/58
f 36/50/59 35/49/59 40/72/59
f 18/20/60 32/46/60 20/23/60
f 32/46/61 36/50/61 56/73/61
f 57/74/62 43/57/62 42/56/62
f 57/75/63 55/70/63 43/76/63
f 55/70/64 39/53/64 43/76/64
f 34/48/65 32/46/65 24/29/65
f 32/46/66 56/73/66 20/23/66
f 57/74/67 42/56/67 30/44/67
f 38/52/68 34/48/68 47/77/68
f 38/52/69 32/46/69 34/48/69
f 41/55/70 45/78/70 48/79/70
f 41/55/71 40/54/71 45/78/71
f 40/72/72 35/49/72 45/59/72
f 44/80/73 46/60/73 51/81/73
f 44/80/74 43/76/74 46/60/74
f 43/76/75 39/53/75 46/60/75
f 22/25/76 57/74/76 30/44/76
f 30/44/77 42/56/77 31/45/77
f 45/78/78 49/82/78 48/79/78
f 45/59/79 38/52/79 49/83/79
f 38/52/80 47/77/80 49/83/80
f 46/60/81 52/84/81 51/81/81
f 46/60/82 41/55/82 52/84/82
f 41/55/83 48/79/83 52/84/83
f 31/45/84 54/85/84 37/51/84
f 31/45/85 44/58/85 54/85/85
f 44/58/86 51/86/86 54/85/86
f 25/32/87 23/26/87 58/87/87
f 10/35/88 25/32/88 58/87/88
f 15/31/89 47/77/89 34/48/89
f 50/64/90 29/43/90 59/88/90
f 50/64/91 49/63/91 29/43/91
f 49/63/92 47/61/92 29/43/92
f 53/67/93 50/64/93 59/88/93
f 53/67/94 52/66/94 50/64/94
f 52/66/95 48/62/95 50/64/95
f 26/40/96 53/67/96 59/88/96
f 26/40/97 54/69/97 53/67/97
f 54/69/98 51/65/98 53/67/98
f 27/41/99 26/40/99 59/88/99
f 10/12/100 37/68/100 26/40/100
f 11/13/101 33/47/101 28/42/101
f 29/43/102 27/41/102 59/88/102
f 28/42/103 27/41/103 17/19/103
f 47/61/104 17/19/104 29/43/104
f 22/89/105 21/90/105 60/91/105
f 21/90/106 19/92/106 60/91/106
f 19/92/107 20/93/107 60/91/107
f 20/93/108 56/94/108 60/91/108
f 56/94/109 36/95/109 60/91/109
f 36/95/110 55/96/110 60/91/110
f 55/96/111 57/97/111 60/91/111
f 57/97/112 22/89/112 60/91/112
f 10/12/113 26/40/113 33/47/113
f 33/47/114 26/40/114 28/42/114
f 23/26/115 31/45/115 58/87/115
f 31/45/116 10/35/116 58/87/116
