# Blender v3.0.1 OBJ File: 'nodes_nature_cobble.blend'
# www.blender.org
mtllib nodes_nature_cobble3.mtl
o Icosphere.001_Icosphere.001
v -0.180823 -0.634491 -0.031326
v -0.080981 -0.669554 0.005755
v -0.166987 -0.569878 0.090439
v -0.204335 -0.487145 -0.180643
v -0.193832 -0.561780 -0.108982
v -0.233493 -0.420199 -0.051957
v -0.209783 -0.513253 0.031074
v -0.223539 -0.364652 -0.136217
v -0.100345 -0.513259 0.176946
v -0.008558 -0.509830 0.192657
v -0.132126 -0.439668 0.213401
v -0.217312 -0.367359 0.095455
v -0.173402 -0.488885 0.155312
v -0.173618 -0.345737 0.132359
v -0.148743 -0.230612 -0.085906
v -0.214481 -0.292161 0.033595
v -0.097674 -0.217662 0.016443
v -0.167295 -0.405026 -0.237004
v -0.157229 -0.534424 -0.164549
v -0.077220 -0.469743 -0.224214
v -0.127834 -0.613041 -0.085208
v -0.019406 -0.634721 -0.071675
v -0.011165 -0.653458 0.005401
v -0.122780 -0.322035 -0.198988
v -0.050842 -0.589224 0.125794
v 0.038526 -0.434140 0.208872
v -0.026591 -0.316021 0.105188
v -0.078413 -0.366476 0.145627
v -0.013578 -0.214791 0.011868
v 0.058356 -0.640397 -0.011306
v 0.095462 -0.604428 0.075332
v -0.027872 -0.361400 -0.262909
v -0.060413 -0.433727 0.206789
v -0.058872 -0.287306 -0.182120
v 0.069057 -0.365186 -0.252924
v 0.074125 -0.457889 -0.236246
v 0.096345 -0.508260 0.172069
v 0.043525 -0.274071 -0.174616
v 0.197435 -0.474969 -0.148256
v 0.164445 -0.429313 -0.206962
v 0.202148 -0.359129 -0.094641
v 0.144710 -0.632729 -0.004935
v 0.184629 -0.565597 -0.105890
v 0.176716 -0.533040 0.060567
v 0.131538 -0.287545 -0.171018
v 0.215022 -0.430539 -0.030034
v -0.031060 -0.244055 -0.097241
v 0.151500 -0.237586 -0.029223
v 0.072825 -0.223089 -0.098655
v 0.085296 -0.236146 0.031290
v 0.202954 -0.395993 0.069970
v 0.170101 -0.290709 0.052736
v 0.148446 -0.326689 0.108453
v 0.164520 -0.459115 0.155071
v 0.141791 -0.515649 -0.173596
v -0.016434 -0.455630 -0.236770
v 0.072348 -0.633562 -0.072628
v 0.025810 -0.604610 0.089968
v 0.052080 -0.318020 0.110757
v -0.004900 -0.544220 -0.154021
vt 0.999784 0.777888
vt 0.781916 0.751069
vt 0.930695 0.535842
vt 0.718554 0.493678
vt 0.498343 0.500066
vt 0.612704 0.301958
vt 0.278288 0.491767
vt 0.136170 0.301428
vt 0.385039 0.315647
vt 0.861174 0.302958
vt 0.817615 0.924676
vt 0.662334 0.996212
vt 0.719667 0.785775
vt 0.955856 0.540882
vt 0.919844 0.749017
vt 0.810792 0.580191
vt 0.698724 0.249779
vt 0.882029 0.358101
vt 0.648319 0.423681
vt 0.738504 0.311189
vt 0.859769 0.100574
vt 0.955856 0.301223
vt 0.603011 0.109855
vt 0.889116 0.979094
vt 0.625593 0.954685
vt 0.572947 0.723101
vt 0.629662 0.708272
vt 0.361849 0.694965
vt 0.626863 0.523494
vt 0.877334 0.514944
vt 0.753445 0.687054
vt 0.678897 0.522004
vt 0.804007 0.322784
vt 0.508145 0.125975
vt 0.614686 0.322544
vt 0.274631 0.088482
vt 0.046907 0.080882
vt 0.724191 0.150589
vt 0.955856 0.101994
vt 0.459738 0.810380
vt 0.524431 0.596612
vt 0.614955 0.619521
vt 0.385224 0.455707
vt 0.518113 0.743431
vt 0.397247 0.481913
vt 0.473092 0.333636
vt 0.593136 0.806842
vt 0.542133 0.566645
vt 0.245991 0.361941
vt 0.291514 0.126530
vt 0.515385 0.289890
vt 0.348981 0.560141
vt 0.480373 0.537386
vt 0.705144 0.472239
vt 0.601667 0.722403
vt 0.283471 0.700220
vt 0.061144 0.812481
vt 0.120014 0.502516
vt 0.080353 0.535703
vt 0.356859 0.719702
vt 0.417004 0.243099
vt 0.001005 0.468262
vt 0.186797 0.314823
vt 0.187216 0.555587
vt 0.094383 0.931756
vt 0.003057 0.709324
vt 0.238065 0.772821
vt 0.569632 0.999536
vt 0.323797 1.000000
vt 0.482075 0.313011
vt 0.735871 0.182001
vt 0.032983 0.251846
vt 0.574313 0.080491
vt 0.318361 0.961238
vt 0.229901 0.178033
vt 0.256609 0.467686
vt 0.464307 0.768933
vt 0.865183 0.712997
vt 0.725052 0.926500
vt 0.093408 0.705147
vt 0.230523 0.921209
vt 0.968797 0.984796
vt 0.210756 0.792236
vt 0.477482 0.962103
vt 0.256493 0.223509
vt 0.000000 0.255402
vt 0.543998 0.500902
vt 0.362414 0.637562
vt 0.469769 0.648982
vt 0.379376 0.894841
vt 0.246514 0.544201
vt 0.117965 0.884444
vt 0.047032 0.632888
vt 0.079441 0.605161
vt 0.000000 0.325670
vt 0.241712 0.163133
vt 0.470206 0.343559
vn -0.4413 -0.7709 0.4592
vn -0.9678 -0.2312 -0.0990
vn -0.8850 -0.3620 0.2927
vn -0.9804 -0.0901 -0.1752
vn -0.1300 -0.4846 0.8650
vn -0.6738 0.1160 0.7298
vn -0.5158 0.8434 0.1506
vn -0.2026 -0.4904 -0.8476
vn -0.2319 -0.4889 -0.8409
vn -0.1297 -0.8708 -0.4742
vn -0.1137 -0.8691 -0.4814
vn 0.2162 -0.9432 -0.2524
vn -0.4447 -0.6521 -0.6140
vn -0.3521 -0.7268 -0.5897
vn -0.3345 -0.7152 -0.6137
vn -0.5965 0.5517 -0.5830
vn -0.5937 0.5759 -0.5620
vn -0.8643 0.0461 -0.5008
vn -0.3169 -0.6631 0.6781
vn -0.3028 -0.7552 0.5814
vn 0.1956 -0.8370 0.5110
vn -0.9818 -0.1167 0.1496
vn -0.9647 -0.2626 -0.0189
vn -0.9761 -0.2141 -0.0370
vn -0.1124 -0.6044 0.7887
vn -0.9328 -0.1847 0.3094
vn -0.8865 -0.3300 0.3243
vn -0.4040 -0.5912 0.6981
vn -0.8279 0.5304 -0.1823
vn -0.9877 0.1559 -0.0139
vn -0.9924 0.0981 0.0738
vn -0.0368 0.6477 0.7610
vn 0.0170 0.6765 0.7362
vn 0.2421 -0.9284 0.2817
vn -0.3121 0.5289 -0.7892
vn 0.1006 -0.1149 0.9883
vn -0.2275 0.7311 -0.6433
vn 0.0402 0.6628 0.7477
vn -0.8444 0.0836 0.5292
vn -0.3995 -0.5396 0.7411
vn 0.0385 0.6579 0.7521
vn -0.3864 0.7343 0.5582
vn -0.6933 0.4732 0.5435
vn 0.0943 -0.1713 -0.9807
vn 0.1472 -0.7021 0.6967
vn 0.1022 0.6647 -0.7401
vn 0.9066 0.1463 -0.3957
vn 0.9208 -0.3722 0.1166
vn 0.1214 -0.9615 -0.2467
vn 0.1321 0.6671 -0.7331
vn 0.9866 0.0336 -0.1594
vn 0.5994 -0.5650 0.5670
vn 0.0955 0.9805 -0.1717
vn 0.1035 0.9906 0.0896
vn 0.7876 0.3309 0.5198
vn 0.3565 -0.1773 0.9173
vn 0.6120 -0.4196 -0.6703
vn 0.3974 -0.4197 -0.8161
vn 0.3470 -0.1477 -0.9262
vn -0.0820 -0.3019 -0.9498
vn -0.0011 -0.2674 -0.9636
vn 0.3846 -0.8315 -0.4009
vn 0.2305 -0.7077 -0.6679
vn 0.6074 -0.4052 -0.6833
vn -0.1879 0.6869 -0.7021
vn -0.1315 -0.2798 -0.9510
vn 0.0946 -0.9915 -0.0889
vn -0.0846 0.8987 -0.4302
vn -0.0439 0.7278 -0.6844
vn 0.8178 0.4970 -0.2902
vn 0.8252 0.3111 -0.4714
vn 0.5785 0.3241 -0.7485
vn 0.9629 -0.1970 0.1843
vn 0.9576 -0.2708 0.0985
vn 0.9812 -0.1760 -0.0798
vn 0.0114 -0.9941 -0.1082
vn 0.0559 -0.9304 0.3623
vn 0.4607 0.8148 -0.3519
vn 0.1457 0.7945 -0.5895
vn -0.1778 0.8475 -0.5002
vn 0.9540 0.2996 0.0116
vn 0.9625 0.2556 0.0907
vn 0.9282 0.3708 0.0297
vn 0.5671 -0.5867 0.5781
vn 0.6102 -0.5838 0.5355
vn 0.9401 -0.1990 0.2770
vn 0.0503 -0.8742 0.4830
vn 0.1885 -0.6894 0.6994
vn 0.0557 0.8821 -0.4677
vn 0.0087 0.6946 0.7193
vn 0.1955 0.9775 0.0795
vn -0.1957 0.9546 -0.2247
vn 0.0784 0.6778 0.7311
vn 0.3208 0.7340 0.5986
vn 0.4096 0.8052 0.4289
vn 0.0757 0.6384 0.7660
vn 0.4256 0.3460 0.8361
vn 0.7712 0.2926 0.5653
vn -0.0374 0.6475 0.7611
vn 0.1873 -0.3158 0.9302
vn 0.0122 0.6746 0.7381
vn -0.0346 0.6798 0.7326
vn -0.0436 0.6517 0.7572
vn -0.0467 0.9667 -0.2518
vn -0.0411 -0.6688 -0.7423
vn 0.0030 -0.7098 -0.7044
vn 0.0066 -0.6824 -0.7309
vn 0.0073 -0.6821 -0.7312
vn -0.0128 -0.6834 -0.7299
vn 0.0445 -0.7101 -0.7027
vn 0.0283 -0.6597 -0.7510
vn 0.0008 -0.6731 -0.7396
vn -0.0215 -0.1966 0.9802
vn -0.0128 0.6709 0.7414
vn 0.0999 -0.8799 0.4646
vn 0.1483 -0.7015 0.6971
usemtl None.001
s off
f 1/1/1 2/2/1 3/3/1
f 4/4/2 5/5/2 6/6/2
f 1/7/3 3/8/3 7/9/3
f 4/4/4 6/6/4 8/10/4
f 9/11/5 10/12/5 11/13/5
f 12/14/6 13/15/6 14/16/6
f 15/17/7 16/18/7 17/19/7
f 18/20/8 19/21/8 4/22/8
f 18/20/9 20/23/9 19/21/9
f 2/2/10 1/1/10 21/24/10
f 21/24/11 22/25/11 2/2/11
f 22/25/12 23/26/12 2/2/12
f 19/27/13 5/5/13 4/4/13
f 19/27/14 21/28/14 5/5/14
f 21/28/15 1/7/15 5/5/15
f 24/29/16 8/30/16 15/31/16
f 24/29/17 18/20/17 8/30/17
f 18/20/18 4/22/18 8/30/18
f 3/3/19 25/32/19 9/33/19
f 3/3/20 2/2/20 25/32/20
f 2/2/21 23/26/21 25/32/21
f 6/6/22 7/9/22 12/34/22
f 6/6/23 5/5/23 7/9/23
f 5/5/24 1/7/24 7/9/24
f 25/32/25 10/35/25 9/33/25
f 7/9/26 13/36/26 12/34/26
f 7/9/27 3/8/27 13/36/27
f 3/8/28 9/37/28 13/36/28
f 8/10/29 16/38/29 15/39/29
f 8/10/30 6/6/30 16/38/30
f 6/6/31 12/34/31 16/38/31
f 26/40/32 27/41/32 28/42/32
f 27/41/33 29/43/33 17/19/33
f 23/26/34 30/44/34 31/45/34
f 32/46/35 18/20/35 24/29/35
f 11/13/36 10/12/36 33/47/36
f 24/29/37 15/31/37 34/48/37
f 14/16/38 11/13/38 28/42/38
f 14/16/39 13/15/39 11/13/39
f 13/15/40 9/11/40 11/13/40
f 17/19/41 14/16/41 28/42/41
f 17/19/42 16/18/42 14/16/42
f 16/18/43 12/14/43 14/16/43
f 35/49/44 36/50/44 32/46/44
f 37/51/45 10/35/45 31/45/45
f 35/49/46 32/46/46 38/52/46
f 39/53/47 40/54/47 41/55/47
f 42/56/48 43/57/48 44/58/48
f 23/26/49 22/25/49 30/44/49
f 35/49/50 38/52/50 45/59/50
f 39/53/51 41/55/51 46/60/51
f 42/56/52 44/58/52 31/45/52
f 15/17/53 17/19/53 47/61/53
f 48/62/54 49/63/54 50/64/54
f 51/65/55 52/66/55 53/67/55
f 37/68/56 54/69/56 26/40/56
f 55/70/57 40/54/57 39/53/57
f 55/70/58 36/71/58 40/54/58
f 36/50/59 35/49/59 40/72/59
f 18/20/60 32/46/60 20/23/60
f 32/46/61 36/50/61 56/73/61
f 57/74/62 43/57/62 42/56/62
f 57/75/63 55/70/63 43/76/63
f 55/70/64 39/53/64 43/76/64
f 34/48/65 32/46/65 24/29/65
f 32/46/66 56/73/66 20/23/66
f 57/74/67 42/56/67 30/44/67
f 38/52/68 34/48/68 47/77/68
f 38/52/69 32/46/69 34/48/69
f 41/55/70 45/78/70 48/79/70
f 41/55/71 40/54/71 45/78/71
f 40/72/72 35/49/72 45/59/72
f 44/80/73 46/60/73 51/81/73
f 44/80/74 43/76/74 46/60/74
f 43/76/75 39/53/75 46/60/75
f 22/25/76 57/74/76 30/44/76
f 30/44/77 42/56/77 31/45/77
f 45/78/78 49/82/78 48/79/78
f 45/59/79 38/52/79 49/83/79
f 38/52/80 47/77/80 49/83/80
f 46/60/81 52/84/81 51/81/81
f 46/60/82 41/55/82 52/84/82
f 41/55/83 48/79/83 52/84/83
f 31/45/84 54/85/84 37/51/84
f 31/45/85 44/58/85 54/85/85
f 44/58/86 51/86/86 54/85/86
f 25/32/87 23/26/87 58/87/87
f 10/35/88 25/32/88 58/87/88
f 15/31/89 47/77/89 34/48/89
f 50/64/90 29/43/90 59/88/90
f 50/64/91 49/63/91 29/43/91
f 49/63/92 47/61/92 29/43/92
f 53/67/93 50/64/93 59/88/93
f 53/67/94 52/66/94 50/64/94
f 52/66/95 48/62/95 50/64/95
f 26/40/96 53/67/96 59/88/96
f 26/40/97 54/69/97 53/67/97
f 54/69/98 51/65/98 53/67/98
f 27/41/99 26/40/99 59/88/99
f 10/12/100 37/68/100 26/40/100
f 11/13/101 33/47/101 28/42/101
f 29/43/102 27/41/102 59/88/102
f 28/42/103 27/41/103 17/19/103
f 47/61/104 17/19/104 29/43/104
f 22/89/105 21/90/105 60/91/105
f 21/90/106 19/92/106 60/91/106
f 19/92/107 20/93/107 60/91/107
f 20/93/108 56/94/108 60/91/108
f 56/94/109 36/95/109 60/91/109
f 36/95/110 55/96/110 60/91/110
f 55/96/111 57/97/111 60/91/111
f 57/97/112 22/89/112 60/91/112
f 10/12/113 26/40/113 33/47/113
f 33/47/114 26/40/114 28/42/114
f 23/26/115 31/45/115 58/87/115
f 31/45/116 10/35/116 58/87/116
