# Blender v3.0.1 OBJ File: 'hammer.blend'
# www.blender.org
mtllib hammer_placed.mtl
o Cube.001_Cube.002
v -0.257566 -0.497487 0.490181
v -0.257566 -0.282733 0.490181
v -0.474363 -0.497487 0.237903
v -0.474363 -0.282733 0.237903
v -0.065495 -0.497487 0.325124
v -0.065495 -0.282733 0.325124
v -0.282291 -0.497487 0.072846
v -0.282291 -0.282733 0.072846
vt 0.354820 0.770815
vt 0.354820 0.999699
vt 0.000301 0.999699
vt 0.000301 0.770815
vt 0.000301 0.999699
vt 0.000301 0.770815
vt 0.270214 0.770815
vt 0.270214 0.999699
vt 0.000301 0.770214
vt 0.000301 0.541330
vt 0.354820 0.541330
vt 0.354820 0.770214
vt 0.000301 0.729786
vt 0.000301 0.500903
vt 0.270214 0.500903
vt 0.270214 0.729786
vt 0.000301 0.729786
vt 0.354820 0.729786
vt 0.354820 0.999699
vt 0.000301 0.999699
vt 0.000301 0.729786
vt 0.354820 0.729786
vt 0.354820 0.999699
vn -0.7584 0.0000 0.6518
vn -0.6518 0.0000 -0.7584
vn 0.7584 0.0000 -0.6518
vn 0.6518 0.0000 0.7584
vn 0.0000 -1.0000 0.0000
vn 0.0000 1.0000 0.0000
usemtl Head
s off
f 1/1/1 2/2/1 4/3/1 3/4/1
f 3/5/2 4/6/2 8/7/2 7/8/2
f 7/9/3 8/10/3 6/11/3 5/12/3
f 5/13/4 6/14/4 2/15/4 1/16/4
f 3/5/5 7/17/5 5/18/5 1/19/5
f 8/20/6 4/21/6 2/22/6 6/23/6
o Cube.002_Cube.003
v -0.368474 -0.435779 0.430794
v -0.368474 -0.356039 0.430794
v -0.423610 -0.435779 0.372411
v -0.423610 -0.356039 0.372411
v 0.295930 -0.435779 -0.196658
v 0.295930 -0.356039 -0.196658
v 0.240794 -0.435779 -0.255041
v 0.240794 -0.356039 -0.255041
vt 0.168728 0.169858
vt 0.083741 0.169858
vt 0.083741 0.084272
vt 0.168728 0.084272
vt 0.867741 0.000301
vt 0.952728 0.000301
vt 0.952728 0.974284
vt 0.867742 0.974284
vt 0.167374 0.084522
vt 0.167374 0.169509
vt 0.081788 0.169509
vt 0.081788 0.084522
vt 0.867741 0.000301
vt 0.952728 0.000301
vt 0.952728 0.974284
vt 0.867742 0.974284
vt 0.952728 0.000301
vt 0.952728 0.974283
vt 0.867141 0.974283
vt 0.867142 0.000301
vt 0.867143 0.974284
vt 0.867141 0.000301
vt 0.952728 0.000301
vt 0.952728 0.974283
vn -0.7270 0.0000 0.6866
vn -0.6866 0.0000 -0.7270
vn 0.7270 0.0000 -0.6866
vn 0.6866 0.0000 0.7270
vn 0.0000 -1.0000 -0.0000
vn 0.0000 1.0000 0.0000
usemtl Handle
s off
f 9/24/7 10/25/7 12/26/7 11/27/7
f 11/28/8 12/29/8 16/30/8 15/31/8
f 15/32/9 16/33/9 14/34/9 13/35/9
f 13/36/10 14/37/10 10/38/10 9/39/10
f 11/40/11 15/41/11 13/42/11 9/43/11
f 16/44/12 12/45/12 10/46/12 14/47/12
